<svg width="194" height="193" viewBox="0 0 194 193" fill="none" xmlns="http://www.w3.org/2000/svg">
<g filter="url(#filter0_d_61_169)">
<rect x="3" y="1.6087" width="188.091" height="187.633" rx="14.8734" fill="white" shape-rendering="crispEdges"/>
<g clip-path="url(#clip0_61_169)">
<path d="M72.8708 148.458C72.9895 148.843 72.9302 149.259 72.7224 149.6L69.8583 154.245C69.5764 154.705 69.057 155.002 68.4931 155.002H41.6924C40.4459 155.002 39.6891 153.696 40.3569 152.717L57.6155 127.296C57.7194 127.148 57.7788 126.984 57.8233 126.821L65.7329 93.0457C65.8219 92.645 66.089 92.3037 66.4749 92.096L77.1892 86.2194C77.575 86.0116 77.8421 85.6703 77.9312 85.2548L79.3706 78.9776C79.6674 77.6717 81.5373 77.3897 82.2792 78.5324L82.7986 79.3634C83.0212 79.7196 83.0806 80.1647 82.9322 80.5654L73.1676 108.791C73.0934 109.013 73.0637 109.251 73.1082 109.488L75.542 122.992C75.5865 123.26 75.5568 123.542 75.4381 123.794L69.6357 136.823C69.5022 137.135 69.4725 137.476 69.5764 137.788L72.8708 148.458ZM152.204 155.002H133.744C133.209 155.002 132.72 154.735 132.423 154.319L120.002 136.853C119.928 136.734 119.854 136.615 119.809 136.482L113.651 118.496C113.532 118.14 113.25 117.828 112.894 117.65L97.8165 110.037C97.401 109.83 97.1042 109.444 97.0151 109.013L94.7892 97.9725C94.7595 97.7945 94.6853 97.6164 94.5666 97.4531L89.4469 89.9293C89.1649 89.5138 89.1204 89.0093 89.3281 88.5641L92.4445 81.901C92.6819 81.3965 93.2013 81.0551 93.7949 81.0255L99.5824 80.6841C99.9237 80.6693 100.235 80.5506 100.488 80.3428L104.747 77.0335C105.548 76.4103 106.765 76.6774 107.195 77.5529L121.872 107.411C121.931 107.544 121.976 107.678 122.005 107.811L123.816 119.817C123.86 120.099 123.979 120.351 124.172 120.559L153.406 152.553C154.267 153.503 153.54 155.002 152.204 155.002ZM80.4243 61.5853C80.4243 58.187 82.576 55.2635 85.6627 53.8983C85.4401 53.5273 85.3066 53.1266 85.3066 52.6962C85.3066 51.049 87.2061 49.7134 89.5359 49.7134C89.5952 49.7134 89.6398 49.7134 89.6991 49.7134C90.6637 48.1107 92.5038 47.0274 94.6111 47.0274C94.7595 47.0274 94.9079 47.0274 95.0563 47.0423C95.2492 47.0571 95.4421 46.9681 95.546 46.8197C97.1042 44.4453 101.052 42.7536 105.667 42.7536C107.373 42.7536 108.991 42.991 110.43 43.3917C110.772 42.8278 111.528 42.4419 112.404 42.4419C113.398 42.4419 114.244 42.9465 114.496 43.644C115.713 42.2342 117.776 41.3141 120.121 41.3141C123.86 41.3141 126.888 43.6736 126.888 46.5823C126.888 46.9384 126.843 47.2797 126.754 47.621C126.695 47.8585 126.828 48.0959 127.081 48.185C129.47 49.0605 131.087 50.7226 131.087 52.6221C131.087 54.7887 128.995 56.6436 126.042 57.3708C125.804 57.4302 125.656 57.6379 125.656 57.8605C125.656 57.8754 125.656 57.8902 125.656 57.905C125.656 59.5819 123.994 60.962 121.857 61.1104C121.872 61.1846 121.872 61.2588 121.872 61.3479C121.872 64.5681 115.743 67.1651 108.189 67.1651C106.557 67.1651 104.999 67.0464 103.559 66.8238C103.559 66.8534 103.559 66.8683 103.559 66.898C103.559 68.2335 101.838 69.3168 99.7308 69.3168C99.6121 69.3168 99.5082 69.3168 99.4043 69.302C99.5527 69.6285 99.6269 69.9698 99.6269 70.326C99.6269 72.4035 97.0003 74.0804 93.7503 74.0804C93.3942 74.0804 93.0529 74.0656 92.7116 74.0211C92.4445 73.9914 92.1922 74.1546 92.1328 74.4069C91.8509 75.4457 90.9456 76.2025 89.8623 76.2025C88.5564 76.2025 87.5176 75.0895 87.5176 73.7243C87.5176 73.0862 87.7403 72.5074 88.1112 72.077C88.2448 71.9287 88.2893 71.7209 88.2003 71.5428C87.9925 71.157 87.9035 70.7563 87.9035 70.326C87.9035 70.0885 87.7106 69.8956 87.4731 69.8362C83.4516 68.9459 80.4243 65.5921 80.4243 61.5853ZM114.496 142.195C114.556 142.373 114.571 142.551 114.571 142.744L113.71 153.622C113.651 154.394 112.968 155.002 112.137 155.002H84.3568C83.7632 155.002 83.2142 154.661 82.947 154.171L78.3615 145.653C78.3319 145.608 78.317 145.564 78.3022 145.519L73.9838 135.057C73.8206 134.686 73.8502 134.256 74.0283 133.9L81.1959 119.876C81.374 119.535 81.4037 119.134 81.2701 118.778L77.7679 109.073C77.6492 108.731 77.6641 108.346 77.8125 108.019L83.6593 95.5685C84.2529 94.3219 86.1969 94.4258 86.6125 95.7317L88.4378 101.401L94.0027 116.3C94.1511 116.715 94.5072 117.042 94.9524 117.19L106.824 121.241C107.284 121.405 107.64 121.746 107.789 122.176L114.496 142.195Z" fill="#D32F2F"/>
</g>
</g>
<defs>
<filter id="filter0_d_61_169" x="0.711787" y="0.693419" width="192.667" height="192.21" filterUnits="userSpaceOnUse" color-interpolation-filters="sRGB">
<feFlood flood-opacity="0" result="BackgroundImageFix"/>
<feColorMatrix in="SourceAlpha" type="matrix" values="0 0 0 0 0 0 0 0 0 0 0 0 0 0 0 0 0 0 127 0" result="hardAlpha"/>
<feOffset dy="1.37293"/>
<feGaussianBlur stdDeviation="1.14411"/>
<feComposite in2="hardAlpha" operator="out"/>
<feColorMatrix type="matrix" values="0 0 0 0 0 0 0 0 0 0 0 0 0 0 0 0 0 0 0.35 0"/>
<feBlend mode="normal" in2="BackgroundImageFix" result="effect1_dropShadow_61_169"/>
<feBlend mode="normal" in="SourceGraphic" in2="effect1_dropShadow_61_169" result="shape"/>
</filter>
<clipPath id="clip0_61_169">
<rect width="113.688" height="113.688" fill="white" transform="translate(40.1006 41.3141)"/>
</clipPath>
</defs>
</svg>
